<?xml version="1.0" encoding="UTF-8" standalone="no"?>
<!DOCTYPE svg PUBLIC "-//W3C//DTD SVG 1.1//EN"
 "http://www.w3.org/Graphics/SVG/1.1/DTD/svg11.dtd">
<!-- Generated by graphviz version 2.40.1 (20161225.0304)
 -->
<!-- Title: G Pages: 1 -->
<svg width="94pt" height="388pt"
 viewBox="0.00 0.00 93.80 388.00" xmlns="http://www.w3.org/2000/svg" xmlns:xlink="http://www.w3.org/1999/xlink">
<g id="graph0" class="graph" transform="scale(1 1) rotate(0) translate(4 384)">
<title>G</title>
<!-- A0 -->
<g id="node1" class="node">
<title>A0</title>
<ellipse fill="none" stroke="#000000" cx="42.8995" cy="-369" rx="11" ry="11"/>
</g>
<!-- A1 -->
<g id="node2" class="node">
<title>A1</title>
<path fill="none" stroke="#000000" d="M12,-285.5C12,-285.5 73.799,-285.5 73.799,-285.5 79.799,-285.5 85.799,-291.5 85.799,-297.5 85.799,-297.5 85.799,-309.5 85.799,-309.5 85.799,-315.5 79.799,-321.5 73.799,-321.5 73.799,-321.5 12,-321.5 12,-321.5 6,-321.5 0,-315.5 0,-309.5 0,-309.5 0,-297.5 0,-297.5 0,-291.5 6,-285.5 12,-285.5"/>
<text text-anchor="middle" x="42.8995" y="-300.5" font-family="Helvetica,sans-Serif" font-size="10.00" fill="#000000">range nplus1</text>
</g>
<!-- A0&#45;&gt;A1 -->
<g id="edge1" class="edge">
<title>A0&#45;&gt;A1</title>
<path fill="none" stroke="#000000" d="M42.8995,-357.8888C42.8995,-350.6757 42.8995,-340.9278 42.8995,-331.6765"/>
<polygon fill="#000000" stroke="#000000" points="42.8995,-321.6041 47.3996,-331.6041 42.8995,-326.6041 42.8996,-331.6041 42.8996,-331.6041 42.8996,-331.6041 42.8995,-326.6041 38.3996,-331.6042 42.8995,-321.6041 42.8995,-321.6041"/>
</g>
<!-- A2 -->
<g id="node3" class="node">
<title>A2</title>
<path fill="none" stroke="#000000" d="M16.45,-212.5C16.45,-212.5 69.349,-212.5 69.349,-212.5 75.349,-212.5 81.349,-218.5 81.349,-224.5 81.349,-224.5 81.349,-236.5 81.349,-236.5 81.349,-242.5 75.349,-248.5 69.349,-248.5 69.349,-248.5 16.45,-248.5 16.45,-248.5 10.45,-248.5 4.45,-242.5 4.45,-236.5 4.45,-236.5 4.45,-224.5 4.45,-224.5 4.45,-218.5 10.45,-212.5 16.45,-212.5"/>
<text text-anchor="middle" x="42.8995" y="-227.5" font-family="Helvetica,sans-Serif" font-size="10.00" fill="#000000">b//z for z in</text>
</g>
<!-- A1&#45;&gt;A2 -->
<g id="edge2" class="edge">
<title>A1&#45;&gt;A2</title>
<path fill="none" stroke="#000000" d="M42.8995,-285.4551C42.8995,-277.3828 42.8995,-267.6764 42.8995,-258.6817"/>
<polygon fill="#000000" stroke="#000000" points="42.8995,-248.5904 47.3996,-258.5903 42.8995,-253.5904 42.8996,-258.5904 42.8996,-258.5904 42.8996,-258.5904 42.8995,-253.5904 38.3996,-258.5904 42.8995,-248.5904 42.8995,-248.5904"/>
</g>
<!-- A3 -->
<g id="node4" class="node">
<title>A3</title>
<path fill="none" stroke="#000000" d="M20.0605,-139.5C20.0605,-139.5 65.7385,-139.5 65.7385,-139.5 71.7385,-139.5 77.7385,-145.5 77.7385,-151.5 77.7385,-151.5 77.7385,-163.5 77.7385,-163.5 77.7385,-169.5 71.7385,-175.5 65.7385,-175.5 65.7385,-175.5 20.0605,-175.5 20.0605,-175.5 14.0605,-175.5 8.0605,-169.5 8.0605,-163.5 8.0605,-163.5 8.0605,-151.5 8.0605,-151.5 8.0605,-145.5 14.0605,-139.5 20.0605,-139.5"/>
<text text-anchor="middle" x="42.8995" y="-154.5" font-family="Helvetica,sans-Serif" font-size="10.00" fill="#000000">... for b in</text>
</g>
<!-- A2&#45;&gt;A3 -->
<g id="edge3" class="edge">
<title>A2&#45;&gt;A3</title>
<path fill="none" stroke="#000000" d="M42.8995,-212.4551C42.8995,-204.3828 42.8995,-194.6764 42.8995,-185.6817"/>
<polygon fill="#000000" stroke="#000000" points="42.8995,-175.5904 47.3996,-185.5903 42.8995,-180.5904 42.8996,-185.5904 42.8996,-185.5904 42.8996,-185.5904 42.8995,-180.5904 38.3996,-185.5904 42.8995,-175.5904 42.8995,-175.5904"/>
</g>
<!-- A4 -->
<g id="node5" class="node">
<title>A4</title>
<path fill="none" stroke="#000000" d="M12,-66.5C12,-66.5 73.799,-66.5 73.799,-66.5 79.799,-66.5 85.799,-72.5 85.799,-78.5 85.799,-78.5 85.799,-90.5 85.799,-90.5 85.799,-96.5 79.799,-102.5 73.799,-102.5 73.799,-102.5 12,-102.5 12,-102.5 6,-102.5 0,-96.5 0,-90.5 0,-90.5 0,-78.5 0,-78.5 0,-72.5 6,-66.5 12,-66.5"/>
<text text-anchor="middle" x="42.8995" y="-81.5" font-family="Helvetica,sans-Serif" font-size="10.00" fill="#000000">range nplus2</text>
</g>
<!-- A3&#45;&gt;A4 -->
<g id="edge4" class="edge">
<title>A3&#45;&gt;A4</title>
<path fill="none" stroke="#000000" d="M42.8995,-139.4551C42.8995,-131.3828 42.8995,-121.6764 42.8995,-112.6817"/>
<polygon fill="#000000" stroke="#000000" points="42.8995,-102.5904 47.3996,-112.5903 42.8995,-107.5904 42.8996,-112.5904 42.8996,-112.5904 42.8996,-112.5904 42.8995,-107.5904 38.3996,-112.5904 42.8995,-102.5904 42.8995,-102.5904"/>
</g>
<!-- A5 -->
<g id="node6" class="node">
<title>A5</title>
<ellipse fill="none" stroke="#000000" cx="42.8995" cy="-15" rx="11" ry="11"/>
<ellipse fill="none" stroke="#000000" cx="42.8995" cy="-15" rx="15" ry="15"/>
</g>
<!-- A4&#45;&gt;A5 -->
<g id="edge5" class="edge">
<title>A4&#45;&gt;A5</title>
<path fill="none" stroke="#000000" d="M42.8995,-66.2397C42.8995,-58.3218 42.8995,-48.9169 42.8995,-40.3394"/>
<polygon fill="#000000" stroke="#000000" points="42.8995,-30.0912 47.3996,-40.0911 42.8995,-35.0912 42.8996,-40.0912 42.8996,-40.0912 42.8996,-40.0912 42.8995,-35.0912 38.3996,-40.0912 42.8995,-30.0912 42.8995,-30.0912"/>
</g>
</g>
</svg>
